# xmcd
# 
# Track frame offsets:
#     150
#     26670
#     52757
#     74145
#     95335
#     117690
#     144300
#     163992
#     188662
#     209375
#     231320
#     253150
#     281555
# 
# Disc length: 4501
# 
# Revision: 761
# Processed by: cddbd v1.5.2PL0 Copyright (c) Steve Scherf et al.
# Submitted via: fre:ac v1.0.27
# 
DISCID=c711930d
DTITLE=Santana - Supernatural
DYEAR=1999
DGENRE=Latin Rock
TTITLE0=(Da Le) Yaleo
TTITLE1=Love of My Life (Featuring Dave Matthews)
TTITLE2=Put Your Lights On (Featuring Everlast)
TTITLE3=Africa Bamba
TTITLE4=Smooth (Featuring Rob Thomas)
TTITLE5=Do You Like The Way (Featuring Lauryn Hill and Cee-Lo)
TTITLE6=Maria Maria
TTITLE7=Migra
TTITLE8=Corazón Espinado (Featuring Maná)
TTITLE9=Wishing It Was (Featuring Eagle-Eye Cherry)
TTITLE10=El Farol
TTITLE11=Primavera
TTITLE12=The Calling (Featuring Eric Clapton)
EXTD=
EXTT0=
EXTT1=
EXTT2=
EXTT3=
EXTT4=
EXTT5=
EXTT6=
EXTT7=
EXTT8=
EXTT9=
EXTT10=
EXTT11=
EXTT12=
PLAYORDER=
